<svg xmlns="http://www.w3.org/2000/svg" xmlns:xlink="http://www.w3.org/1999/xlink" xmlns:sketch="http://www.bohemiancoding.com/sketch/ns" width="20px" height="20px" viewBox="0 0 20 20" version="1.1">
	<!-- Generator: Sketch 3.1.1 (8761) - http://www.bohemiancoding.com/sketch -->
	<title>border-dot</title>
	<desc>Created with Sketch.</desc>
	<defs/>
	<g id="Page-1" stroke="none" stroke-width="1" fill="none" fill-rule="evenodd" sketch:type="MSPage">
		<g id="Artboard-1" sketch:type="MSArtboardGroup" fill="#97999B">
			<path d="M2,4 C3.1045695,4 4,3.1045695 4,2 C4,0.8954305 3.1045695,0 2,0 C0.8954305,0 0,0.8954305 0,2 C0,3.1045695 0.8954305,4 2,4 Z M2,12 C3.1045695,12 4,11.1045695 4,10 C4,8.8954305 3.1045695,8 2,8 C0.8954305,8 0,8.8954305 0,10 C0,11.1045695 0.8954305,12 2,12 Z M2,20 C3.1045695,20 4,19.1045695 4,18 C4,16.8954305 3.1045695,16 2,16 C0.8954305,16 0,16.8954305 0,18 C0,19.1045695 0.8954305,20 2,20 Z M10,4 C11.1045695,4 12,3.1045695 12,2 C12,0.8954305 11.1045695,0 10,0 C8.8954305,0 8,0.8954305 8,2 C8,3.1045695 8.8954305,4 10,4 Z M10,20 C11.1045695,20 12,19.1045695 12,18 C12,16.8954305 11.1045695,16 10,16 C8.8954305,16 8,16.8954305 8,18 C8,19.1045695 8.8954305,20 10,20 Z M18,4 C19.1045695,4 20,3.1045695 20,2 C20,0.8954305 19.1045695,0 18,0 C16.8954305,0 16,0.8954305 16,2 C16,3.1045695 16.8954305,4 18,4 Z M18,12 C19.1045695,12 20,11.1045695 20,10 C20,8.8954305 19.1045695,8 18,8 C16.8954305,8 16,8.8954305 16,10 C16,11.1045695 16.8954305,12 18,12 Z M18,20 C19.1045695,20 20,19.1045695 20,18 C20,16.8954305 19.1045695,16 18,16 C16.8954305,16 16,16.8954305 16,18 C16,19.1045695 16.8954305,20 18,20 Z" id="dots" sketch:type="MSShapeGroup"/>
		</g>
	</g>
</svg>